<svg width="420" height="20" viewBox="0 0 420 20" fill="none" xmlns="http://www.w3.org/2000/svg">
<path fill-rule="evenodd" clip-rule="evenodd" d="M20.5 4.75C19.9477 4.75 19.5 5.19772 19.5 5.75V13.75C19.5 14.3023 19.9477 14.75 20.5 14.75H21.5C22.0523 14.75 22.5 14.3023 22.5 13.75V5.75C22.5 5.19772 22.0523 4.75 21.5 4.75H20.5ZM15 7.75C15 7.19772 15.4477 6.75 16 6.75H17C17.5523 6.75 18 7.19772 18 7.75V13.75C18 14.3023 17.5523 14.75 17 14.75H16C15.4477 14.75 15 14.3023 15 13.75V7.75ZM11.5 8.75C10.9477 8.75 10.5 9.19772 10.5 9.75V13.75C10.5 14.3023 10.9477 14.75 11.5 14.75H12.5C13.0523 14.75 13.5 14.3023 13.5 13.75V9.75C13.5 9.19772 13.0523 8.75 12.5 8.75H11.5ZM7 14.75C6.44772 14.75 6 14.3023 6 13.75V11.25C6 10.6977 6.44772 10.25 7 10.25H8C8.55228 10.25 9 10.6977 9 11.25V13.75C9 14.3023 8.55228 14.75 8 14.75H7Z" fill="black"/>
<path d="M179.493 13.9775H181.005V5.52246H179.499L177.29 7.06934V8.52246L179.393 7.0459H179.493V13.9775Z" fill="black"/>
<path d="M186.36 14.1826C188.511 14.1826 189.788 12.501 189.788 9.65332C189.788 8.58105 189.583 7.67871 189.19 6.98145C188.622 5.89746 187.643 5.31152 186.407 5.31152C184.567 5.31152 183.267 6.54785 183.267 8.28223C183.267 9.91113 184.438 11.0947 186.05 11.0947C187.04 11.0947 187.843 10.6318 188.241 9.8291H188.259C188.259 9.8291 188.282 9.8291 188.288 9.8291C188.3 9.8291 188.341 9.8291 188.341 9.8291C188.341 11.7627 187.608 12.917 186.372 12.917C185.645 12.917 185.083 12.5186 184.89 11.8799H183.384C183.636 13.2686 184.813 14.1826 186.36 14.1826ZM186.413 9.89355C185.44 9.89355 184.749 9.20215 184.749 8.23535C184.749 7.29199 185.476 6.57129 186.419 6.57129C187.362 6.57129 188.089 7.30371 188.089 8.25879C188.089 9.20215 187.38 9.89355 186.413 9.89355Z" fill="black"/>
<path d="M192.442 13.0811C192.999 13.0811 193.38 12.6826 193.38 12.1553C193.38 11.6221 192.999 11.2295 192.442 11.2295C191.892 11.2295 191.505 11.6221 191.505 12.1553C191.505 12.6826 191.892 13.0811 192.442 13.0811ZM192.442 8.68652C192.999 8.68652 193.38 8.29395 193.38 7.7666C193.38 7.2334 192.999 6.84082 192.442 6.84082C191.892 6.84082 191.505 7.2334 191.505 7.7666C191.505 8.29395 191.892 8.68652 192.442 8.68652Z" fill="black"/>
<path d="M198.349 14.1885C200.37 14.1885 201.571 12.5479 201.571 9.75293C201.571 6.94629 200.352 5.31152 198.349 5.31152C196.339 5.31152 195.12 6.94629 195.12 9.74121C195.12 12.5479 196.321 14.1885 198.349 14.1885ZM198.349 12.9346C197.276 12.9346 196.649 11.8213 196.649 9.74121C196.649 7.67871 197.288 6.57129 198.349 6.57129C199.409 6.57129 200.042 7.67285 200.042 9.74121C200.042 11.8213 199.421 12.9346 198.349 12.9346Z" fill="black"/>
<path d="M203.142 7.99512V8.01855H204.56V7.99512C204.56 7.13379 205.157 6.55371 206.042 6.55371C206.874 6.55371 207.483 7.09277 207.483 7.83691C207.483 8.43457 207.196 8.87402 206.042 10.0459L203.224 12.9287V13.9775H209.095V12.6943H205.298V12.5947L207.067 10.8193C208.503 9.40137 208.966 8.65137 208.966 7.74316C208.966 6.33105 207.759 5.31152 206.089 5.31152C204.354 5.31152 203.142 6.41309 203.142 7.99512Z" fill="black"/>
<path d="M372.193 6.24216C374.604 6.24226 376.922 7.17402 378.669 8.84485C378.801 8.97384 379.011 8.97222 379.141 8.8412L380.398 7.56448C380.464 7.49803 380.501 7.40802 380.5 7.31436C380.499 7.22071 380.462 7.13114 380.395 7.06546C375.81 2.64485 368.575 2.64485 363.989 7.06546C363.923 7.13109 363.885 7.22063 363.885 7.31429C363.884 7.40794 363.921 7.49798 363.986 7.56448L365.244 8.8412C365.374 8.97241 365.584 8.97404 365.716 8.84485C367.463 7.17391 369.782 6.24215 372.193 6.24216ZM372.193 10.3959C373.517 10.3958 374.795 10.891 375.776 11.7853C375.909 11.9122 376.118 11.9095 376.248 11.7791L377.504 10.5024C377.57 10.4354 377.607 10.3446 377.606 10.2502C377.605 10.1558 377.567 10.0657 377.499 10.0001C374.509 7.20256 369.879 7.20256 366.889 10.0001C366.822 10.0657 366.783 10.1558 366.782 10.2503C366.781 10.3447 366.818 10.4355 366.884 10.5024L368.14 11.7791C368.27 11.9095 368.479 11.9122 368.612 11.7853C369.593 10.8916 370.869 10.3964 372.193 10.3959ZM374.607 13.4429C374.674 13.3766 374.711 13.2853 374.709 13.1906C374.707 13.0959 374.667 13.0063 374.597 12.9428C373.209 11.7621 371.177 11.7621 369.789 12.9428C369.719 13.0062 369.678 13.0959 369.676 13.1905C369.674 13.2852 369.711 13.3765 369.778 13.4429L371.952 15.6487C372.015 15.7135 372.102 15.75 372.193 15.75C372.283 15.75 372.37 15.7135 372.434 15.6487L374.607 13.4429Z" fill="black"/>
<path opacity="0.44" fill-rule="evenodd" clip-rule="evenodd" d="M412.5 7.5L412.96 7.80662C413.61 8.23981 414 8.96907 414 9.75C414 10.5309 413.61 11.2602 412.96 11.6934L412.5 12V7.5ZM389.5 4H409.5C410.605 4 411.5 4.89543 411.5 6V13.5C411.5 14.6046 410.605 15.5 409.5 15.5H389.5C388.395 15.5 387.5 14.6046 387.5 13.5V6C387.5 4.89543 388.395 4 389.5 4ZM389.5 5C388.948 5 388.5 5.44772 388.5 6V13.5C388.5 14.0523 388.948 14.5 389.5 14.5H409.5C410.052 14.5 410.5 14.0523 410.5 13.5V6C410.5 5.44772 410.052 5 409.5 5H389.5Z" fill="black"/>
<path fill-rule="evenodd" clip-rule="evenodd" d="M390.5 6H405.5V13.5H390.5C389.948 13.5 389.5 13.0523 389.5 12.5V7C389.5 6.44772 389.948 6 390.5 6Z" fill="black"/>
</svg>
